<mxfile host="app.diagrams.net" modified="2023-07-11T17:16:18.802Z" agent="Mozilla/5.0 (Macintosh; Intel Mac OS X 10_15_7) AppleWebKit/537.36 (KHTML, like Gecko) Chrome/114.0.0.0 Safari/537.36" version="21.6.2" etag="LLK-J63KAwYiFlQjccIW" type="github">
  <diagram name="Sayfa -1" id="hX87Kj3gh5_bb-eSJZjh">
    <mxGraphModel>
      <root>
        <mxCell id="0" />
        <mxCell id="1" parent="0" />
      </root>
    </mxGraphModel>
  </diagram>
</mxfile>
